<?xml version="1.0" encoding="UTF-8"?>
<svg id="Layer_1" data-name="Layer 1" xmlns="http://www.w3.org/2000/svg" width="42.52" height="57.862" xmlns:xlink="http://www.w3.org/1999/xlink" viewBox="0 0 42.52 57.862">
  <defs>
    <clipPath id="clippath">
      <rect width="42.48" height="57.802" fill="none"/>
    </clipPath>
    <clipPath id="clippath-1">
      <rect width="42.48" height="57.802" fill="none"/>
    </clipPath>
  </defs>
  <g clip-path="url(#clippath)">
    <rect x="3.648" y="49.5534" width="35.956" height="8.2486" fill="#231f20"/>
  </g>
  <path d="m29.734,34.898c0,.718-.59,1.31-1.315,1.31-.724,0-1.302-.592-1.302-1.31,0-.73.578-1.306,1.302-1.306.725,0,1.315.576,1.315,1.306" fill="#231f20"/>
  <g clip-path="url(#clippath-1)">
    <path d="m33.819,13.202v-3.17L42.52,1.422V0l-9.382,9.306-1.593-.004.064-1c.18-.024.438-.069.754-.267.249.148.525.254.835.254.95,0,1.716-.768,1.716-1.712,0-.949-.766-1.714-1.716-1.714-.37,0-.688.144-.971.343-.096-.04-.192-.083-.249-.096l-.392-.02c-1.405-.754-4.307-1.22-6.522-1.479v-1.113h-5.475v.937c-1.392.099-2.515.265-3.468.489v-1.15h-2.08v1.811c-.914.404-1.499.866-1.848,1.298-.325.409-.451.795-.501,1.093-.99.114-1.1.23-1.18.32l-.116.133v.9h1.701l.326,3.984L0,0v1.422l12.549,12.409,1.186,14.708L1.682,40.488l.674.685,11.489-11.372.501,6.28h.917v2.284h1.691v-2.284h7.854c.513,1.537,1.914,2.671,3.614,2.671,2.134,0,3.858-1.735,3.858-3.854,0-.967-.392-1.825-.983-2.502l8.871,8.777.67-.685-10.726-10.637,1.162-16.649h2.545m-.621-2.557v1.953h-1.888l.007-.093,1.881-1.86Zm-12.994-7.53h4.2456v.7842h-4.2456v-.7842Zm-7.865,3.815c.057-.206.153-.425.369-.684.266-.329.685-.678,1.333-.997v1.328h2.08v-2.032c.933-.226,2.052-.406,3.468-.502v.475h5.475v-.289c2.196.258,5.048.714,6.293,1.424.106.09.196.194.252.314-.07.188-.119.397-.119.61,0,.018.006.031.006.031-.103.126-.285.236-.592.255-.049-.006-5.381-.109-10.518-.109-4.319,0-6.701.069-8.047.176m1.971,21.041l-1.097-13.48,7.353,7.28-6.256,6.2Zm10.259,6.927c0,.196.083.369.11.558h-9.761l-.505-6.22,6.85-6.774,8.19,8.106-.047.675c-.322-.091-.637-.199-.984-.199-2.119,0-3.853,1.728-3.853,3.854m3.853,2.179c-1.198,0-2.176-.973-2.176-2.179,0-1.209.978-2.183,2.176-2.183,1.207,0,2.191.974,2.191,2.183,0,1.206-.984,2.179-2.191,2.179m2.496-5.056c-.279-.246-.578-.465-.914-.622l.017-.268.897.89Zm-1.373-2.736l-7.584-7.514,8.652-8.569h.04l-1.108,16.083Zm1.38-19.986h-.704v2.899l-3.336,3.304v-1.392h-6.974v2.156h6.202l-4.85,4.814-8.173-8.106-.415-5.113h18.35l-.1,1.438Z" fill="#231f20"/>
  </g>
</svg>