<?xml version="1.0" encoding="utf-8"?>
<!-- Generator: Adobe Illustrator 27.2.0, SVG Export Plug-In . SVG Version: 6.00 Build 0)  -->
<svg version="1.1" id="Layer_1" xmlns="http://www.w3.org/2000/svg" xmlns:xlink="http://www.w3.org/1999/xlink" x="0px" y="0px"
	 viewBox="0 0 141.73 283.46" style="enable-background:new 0 0 141.73 283.46;" xml:space="preserve">
<style type="text/css">
	.st0{fill:#FFFFFF;}
	.st1{fill:#FFFFFF;stroke:#000000;stroke-miterlimit:10;}
	.st2{font-family:'LGSmartUICondensed-Light';}
	.st3{font-size:11.7748px;}
</style>
<rect class="st0" width="141.73" height="283.46"/>
<g>
	<rect x="7.09" y="196.05" class="st1" width="30.34" height="53.1"/>
	<path class="st1" d="M37.43,53.77H7.09V16.85c0-4.74,3.85-8.59,8.59-8.59h13.16c4.74,0,8.59,3.85,8.59,8.59V53.77z"/>
	<text transform="matrix(1 0 0 1 20.139 34.3128)" class="st2 st3">1</text>
	<rect x="7.09" y="53.87" class="st1" width="30.34" height="45.51"/>
	<text transform="matrix(1 0 0 1 19.4686 79.9192)" class="st2 st3">2</text>
	<path class="st1" d="M37.43,99.29H7.09v36.93c0,4.74,3.85,8.59,8.59,8.59h13.16c4.74,0,8.59-3.85,8.59-8.59V99.29z"/>
	<text transform="matrix(1 0 0 1 19.2786 125.3416)" class="st2 st3">3</text>
	<text transform="matrix(1 0 0 1 19.2786 225.8992)" class="st2 st3">3</text>
	<g>
		<path d="M13.68,159.25h-3.55v3.39h3.29v0.6h-3.29v4.4H9.47v-8.99h4.21V159.25z"/>
		<path d="M15.86,159.62h-0.63v-1.23h0.63V159.62z M15.86,167.64h-0.62v-6.48h0.62V167.64z"/>
		<path d="M21.17,167.12c-0.42,0.44-0.96,0.66-1.62,0.66c-1.45,0-2.18-1.12-2.18-3.37s0.73-3.37,2.18-3.37
			c0.33,0,0.64,0.07,0.92,0.19c0.28,0.13,0.52,0.3,0.73,0.5l0.13-0.56h0.47v6.64c0,0.95-0.19,1.64-0.58,2.09
			c-0.39,0.45-0.96,0.67-1.72,0.67c-0.3,0-0.59-0.02-0.87-0.07c-0.28-0.05-0.51-0.12-0.71-0.21l0.16-0.59
			c0.2,0.08,0.42,0.15,0.66,0.19s0.5,0.07,0.79,0.07c0.58,0,1-0.17,1.26-0.51c0.26-0.34,0.39-0.89,0.39-1.63V167.12z M21.17,162.48
			c-0.18-0.24-0.4-0.44-0.67-0.6c-0.27-0.16-0.54-0.24-0.83-0.24c-0.59,0-1.02,0.22-1.28,0.65s-0.4,1.14-0.4,2.12
			c0,0.98,0.13,1.69,0.4,2.12s0.7,0.65,1.28,0.65c0.29,0,0.56-0.08,0.83-0.24c0.27-0.16,0.49-0.36,0.67-0.6V162.48z"/>
		<path d="M24.16,167.83h-0.87v-0.91h0.87V167.83z"/>
		<path d="M34.3,158.65v8.99h-0.67v-8.15l-1.97,1.42l-0.36-0.51l2.46-1.75H34.3z"/>
	</g>
	<g>
		<path d="M13.68,263.61h-3.55v3.39h3.29v0.6h-3.29v4.4H9.47V263h4.21V263.61z"/>
		<path d="M15.86,263.97h-0.63v-1.23h0.63V263.97z M15.86,271.99h-0.62v-6.48h0.62V271.99z"/>
		<path d="M21.17,271.47c-0.42,0.44-0.96,0.66-1.62,0.66c-1.45,0-2.18-1.12-2.18-3.37s0.73-3.37,2.18-3.37
			c0.33,0,0.64,0.07,0.92,0.19c0.28,0.13,0.52,0.3,0.73,0.5l0.13-0.56h0.47v6.64c0,0.95-0.19,1.64-0.58,2.09
			c-0.39,0.45-0.96,0.67-1.72,0.67c-0.3,0-0.59-0.02-0.87-0.07c-0.28-0.05-0.51-0.12-0.71-0.21l0.16-0.59
			c0.2,0.08,0.42,0.15,0.66,0.19s0.5,0.07,0.79,0.07c0.58,0,1-0.17,1.26-0.51c0.26-0.34,0.39-0.89,0.39-1.63V271.47z M21.17,266.83
			c-0.18-0.24-0.4-0.44-0.67-0.6c-0.27-0.16-0.54-0.24-0.83-0.24c-0.59,0-1.02,0.22-1.28,0.65s-0.4,1.14-0.4,2.12
			c0,0.98,0.13,1.69,0.4,2.12s0.7,0.65,1.28,0.65c0.29,0,0.56-0.08,0.83-0.24c0.27-0.16,0.49-0.36,0.67-0.6V266.83z"/>
		<path d="M24.16,272.18h-0.87v-0.91h0.87V272.18z"/>
		<path d="M32.04,263.87c0.23-0.27,0.55-0.5,0.94-0.7c0.4-0.2,0.84-0.3,1.33-0.3c0.36,0,0.68,0.06,0.97,0.17
			c0.29,0.12,0.54,0.28,0.74,0.48c0.21,0.21,0.36,0.45,0.47,0.74c0.11,0.29,0.16,0.6,0.16,0.94c0,0.52-0.13,0.95-0.4,1.3
			c-0.26,0.35-0.58,0.6-0.96,0.75c0.21,0.06,0.41,0.16,0.6,0.29c0.19,0.13,0.35,0.29,0.5,0.49c0.15,0.2,0.26,0.42,0.35,0.68
			c0.08,0.25,0.13,0.53,0.13,0.84c0,0.42-0.07,0.79-0.2,1.11c-0.13,0.32-0.32,0.59-0.56,0.81s-0.52,0.39-0.84,0.5
			c-0.33,0.12-0.68,0.17-1.06,0.17c-0.56,0-1.05-0.09-1.46-0.27s-0.76-0.43-1.04-0.74l0.43-0.47c0.29,0.29,0.59,0.52,0.9,0.66
			c0.32,0.15,0.71,0.22,1.17,0.22c0.29,0,0.56-0.04,0.8-0.13c0.24-0.09,0.45-0.22,0.63-0.39c0.18-0.17,0.32-0.38,0.42-0.62
			c0.1-0.24,0.15-0.52,0.15-0.83c0-0.59-0.17-1.06-0.5-1.42s-0.84-0.54-1.51-0.54h-0.7v-0.6h0.71c0.25,0,0.48-0.04,0.7-0.13
			c0.21-0.08,0.4-0.21,0.56-0.36c0.16-0.16,0.29-0.34,0.38-0.57c0.09-0.22,0.13-0.47,0.13-0.74c0-0.48-0.15-0.89-0.45-1.22
			c-0.3-0.33-0.72-0.5-1.25-0.5c-0.43,0-0.79,0.08-1.1,0.25s-0.56,0.36-0.76,0.58L32.04,263.87z"/>
	</g>
	<polygon class="st1" points="134.65,249.15 104.3,249.15 104.3,196.05 	"/>
	<g>
		<path class="st1" d="M134.65,60.12H104.3V16.85c0-4.74,3.85-8.59,8.59-8.59h13.16c4.74,0,8.59,3.85,8.59,8.59V60.12z"/>
		<text transform="matrix(1 0 0 1 117.3548 34.3128)" class="st2 st3">1</text>
	</g>
	<path class="st1" d="M134.65,99.38H104.3V62.45c0-4.74,3.85-8.59,8.59-8.59h13.16c4.74,0,8.59,3.85,8.59,8.59V99.38z"/>
	<text transform="matrix(1 0 0 1 116.4954 79.9192)" class="st2 st3">3</text>
	<g>
		<path d="M110.13,159.25h-3.55v3.39h3.29v0.6h-3.29v4.4h-0.67v-8.99h4.21V159.25z"/>
		<path d="M112.32,159.62h-0.63v-1.23h0.63V159.62z M112.32,167.64h-0.62v-6.48h0.62V167.64z"/>
		<path d="M117.63,167.12c-0.42,0.44-0.96,0.66-1.62,0.66c-1.45,0-2.18-1.12-2.18-3.37s0.73-3.37,2.18-3.37
			c0.33,0,0.64,0.07,0.92,0.19c0.28,0.13,0.52,0.3,0.73,0.5l0.13-0.56h0.47v6.64c0,0.95-0.19,1.64-0.58,2.09
			c-0.39,0.45-0.96,0.67-1.72,0.67c-0.3,0-0.59-0.02-0.87-0.07c-0.28-0.05-0.51-0.12-0.71-0.21l0.16-0.59
			c0.2,0.08,0.41,0.15,0.66,0.19s0.5,0.07,0.79,0.07c0.58,0,1-0.17,1.26-0.51c0.26-0.34,0.39-0.89,0.39-1.63V167.12z M117.63,162.48
			c-0.18-0.24-0.4-0.44-0.67-0.6c-0.27-0.16-0.54-0.24-0.83-0.24c-0.59,0-1.02,0.22-1.28,0.65s-0.4,1.14-0.4,2.12
			c0,0.98,0.13,1.69,0.4,2.12s0.7,0.65,1.28,0.65c0.29,0,0.56-0.08,0.83-0.24c0.27-0.16,0.49-0.36,0.67-0.6V162.48z"/>
		<path d="M120.61,167.83h-0.87v-0.91h0.87V167.83z"/>
		<path d="M128.35,159.63c0.23-0.31,0.53-0.58,0.89-0.79c0.36-0.21,0.81-0.32,1.34-0.32c0.33,0,0.64,0.05,0.92,0.16
			s0.53,0.26,0.74,0.46c0.21,0.2,0.37,0.44,0.49,0.72c0.12,0.28,0.17,0.6,0.17,0.96c0,0.33-0.04,0.64-0.12,0.94
			c-0.08,0.29-0.2,0.59-0.35,0.89c-0.15,0.3-0.34,0.61-0.58,0.93s-0.5,0.67-0.8,1.06l-1.9,2.41h3.89v0.6h-4.79v-0.54l2.28-2.86
			c0.29-0.38,0.55-0.71,0.76-1.02c0.21-0.3,0.39-0.59,0.53-0.86c0.14-0.27,0.24-0.53,0.31-0.78c0.07-0.25,0.1-0.51,0.1-0.78
			c0-0.54-0.15-0.95-0.46-1.25c-0.3-0.3-0.71-0.45-1.22-0.45c-0.45,0-0.8,0.09-1.07,0.27s-0.5,0.39-0.7,0.63L128.35,159.63z"/>
	</g>
	<g>
		<path d="M110.13,263.61h-3.55v3.39h3.29v0.6h-3.29v4.4h-0.67V263h4.21V263.61z"/>
		<path d="M112.32,263.97h-0.63v-1.23h0.63V263.97z M112.32,271.99h-0.62v-6.48h0.62V271.99z"/>
		<path d="M117.63,271.47c-0.42,0.44-0.96,0.66-1.62,0.66c-1.45,0-2.18-1.12-2.18-3.37s0.73-3.37,2.18-3.37
			c0.33,0,0.64,0.07,0.92,0.19c0.28,0.13,0.52,0.3,0.73,0.5l0.13-0.56h0.47v6.64c0,0.95-0.19,1.64-0.58,2.09
			c-0.39,0.45-0.96,0.67-1.72,0.67c-0.3,0-0.59-0.02-0.87-0.07c-0.28-0.05-0.51-0.12-0.71-0.21l0.16-0.59
			c0.2,0.08,0.41,0.15,0.66,0.19s0.5,0.07,0.79,0.07c0.58,0,1-0.17,1.26-0.51c0.26-0.34,0.39-0.89,0.39-1.63V271.47z M117.63,266.83
			c-0.18-0.24-0.4-0.44-0.67-0.6c-0.27-0.16-0.54-0.24-0.83-0.24c-0.59,0-1.02,0.22-1.28,0.65s-0.4,1.14-0.4,2.12
			c0,0.98,0.13,1.69,0.4,2.12s0.7,0.65,1.28,0.65c0.29,0,0.56-0.08,0.83-0.24c0.27-0.16,0.49-0.36,0.67-0.6V266.83z"/>
		<path d="M120.61,272.18h-0.87v-0.91h0.87V272.18z"/>
		<path d="M132.64,263v6.32h1.14v0.56h-1.14v2.11h-0.63v-2.11h-3.97v-0.44l3.99-6.44H132.64z M132.01,264.13H132l-3.17,5.19h3.18
			V264.13z"/>
	</g>
</g>
</svg>
